<svg width="27" height="24" viewBox="0 0 27 24" fill="none" xmlns="http://www.w3.org/2000/svg">
<path d="M22.6362 17.8969C22.1388 16.8496 21.417 15.8984 20.511 15.0961C19.6078 14.2915 18.5378 13.65 17.3602 13.207C17.3496 13.2023 17.3391 13.2 17.3285 13.1953C18.9712 12.1406 20.0391 10.4227 20.0391 8.48438C20.0391 5.27344 17.1123 2.67188 13.5 2.67188C9.8877 2.67188 6.96094 5.27344 6.96094 8.48438C6.96094 10.4227 8.02881 12.1406 9.67149 13.1977C9.66094 13.2023 9.6504 13.2047 9.63985 13.2094C8.4586 13.6523 7.39864 14.2875 6.48897 15.0984C5.58381 15.9013 4.86213 16.8524 4.36377 17.8992C3.87419 18.924 3.61015 20.0228 3.58594 21.1359C3.58524 21.161 3.59017 21.1858 3.60046 21.2091C3.61074 21.2324 3.62617 21.2537 3.64583 21.2716C3.66549 21.2895 3.68898 21.3037 3.71492 21.3134C3.74086 21.3231 3.76873 21.3281 3.79688 21.3281H5.37891C5.49493 21.3281 5.58721 21.2461 5.58985 21.1453C5.64258 19.3359 6.45997 17.6414 7.90489 16.357C9.39991 15.0281 11.3854 14.2969 13.5 14.2969C15.6147 14.2969 17.6001 15.0281 19.0951 16.357C20.54 17.6414 21.3574 19.3359 21.4102 21.1453C21.4128 21.2484 21.5051 21.3281 21.6211 21.3281H23.2031C23.2313 21.3281 23.2591 21.3231 23.2851 21.3134C23.311 21.3037 23.3345 21.2895 23.3542 21.2716C23.3738 21.2537 23.3893 21.2324 23.3996 21.2091C23.4098 21.1858 23.4148 21.161 23.4141 21.1359C23.3877 20.0156 23.1267 18.9258 22.6362 17.8969V17.8969ZM13.5 12.5156C12.2898 12.5156 11.1507 12.0961 10.2938 11.3344C9.43682 10.5727 8.96485 9.56016 8.96485 8.48438C8.96485 7.40859 9.43682 6.39609 10.2938 5.63437C11.1507 4.87266 12.2898 4.45312 13.5 4.45312C14.7103 4.45312 15.8493 4.87266 16.7063 5.63437C17.5632 6.39609 18.0352 7.40859 18.0352 8.48438C18.0352 9.56016 17.5632 10.5727 16.7063 11.3344C15.8493 12.0961 14.7103 12.5156 13.5 12.5156Z" fill="black"/>
</svg>
