<svg width="176" height="121" viewBox="0 0 176 121" fill="none" xmlns="http://www.w3.org/2000/svg">
<path id="GETTING things done" d="M15.7422 23.8789C17.2396 23.8789 18.6914 23.6641 20.0977 23.2344C21.5039 22.7917 22.5911 22.2318 23.3594 21.5547V17.7461H16.6406V13.4883H28.6328V23.6055C27.1745 25.1029 25.2734 26.2747 22.9297 27.1211C20.599 27.9674 18.151 28.3906 15.5859 28.3906C11.1068 28.3906 7.66276 27.1536 5.25391 24.6797C2.84505 22.1927 1.64062 18.6706 1.64062 14.1133C1.64062 9.58203 2.85156 6.11198 5.27344 3.70312C7.69531 1.28125 11.1784 0.0703125 15.7227 0.0703125C22.181 0.0703125 26.2891 2.45964 28.0469 7.23828L22.7344 8.83984C22.1615 7.44661 21.263 6.39193 20.0391 5.67578C18.8151 4.95964 17.3763 4.60156 15.7227 4.60156C13.0143 4.60156 10.957 5.42188 9.55078 7.0625C8.14453 8.70312 7.44141 11.0534 7.44141 14.1133C7.44141 17.2253 8.16406 19.6341 9.60938 21.3398C11.0677 23.0326 13.112 23.8789 15.7422 23.8789ZM33.8086 28V0.480469H55.4492V4.93359H39.5703V11.8477H54.2578V16.3008H39.5703V23.5469H56.25V28H33.8086ZM72.9102 4.93359V28H67.1484V4.93359H58.2617V0.480469H81.8164V4.93359H72.9102ZM97.3633 4.93359V28H91.6016V4.93359H82.7148V0.480469H106.27V4.93359H97.3633ZM109.395 28V0.480469H115.156V28H109.395ZM137.285 28L125.293 6.80859C125.527 8.86589 125.645 10.5195 125.645 11.7695V28H120.527V0.480469H127.109L139.277 21.8477C139.043 19.8815 138.926 18.0911 138.926 16.4766V0.480469H144.043V28H137.285ZM162.5 23.8789C163.997 23.8789 165.449 23.6641 166.855 23.2344C168.262 22.7917 169.349 22.2318 170.117 21.5547V17.7461H163.398V13.4883H175.391V23.6055C173.932 25.1029 172.031 26.2747 169.688 27.1211C167.357 27.9674 164.909 28.3906 162.344 28.3906C157.865 28.3906 154.421 27.1536 152.012 24.6797C149.603 22.1927 148.398 18.6706 148.398 14.1133C148.398 9.58203 149.609 6.11198 152.031 3.70312C154.453 1.28125 157.936 0.0703125 162.48 0.0703125C168.939 0.0703125 173.047 2.45964 174.805 7.23828L169.492 8.83984C168.919 7.44661 168.021 6.39193 166.797 5.67578C165.573 4.95964 164.134 4.60156 162.48 4.60156C159.772 4.60156 157.715 5.42188 156.309 7.0625C154.902 8.70312 154.199 11.0534 154.199 14.1133C154.199 17.2253 154.922 19.6341 156.367 21.3398C157.826 23.0326 159.87 23.8789 162.5 23.8789ZM10.8203 73.8438C9.66146 74.1562 8.47656 74.3125 7.26562 74.3125C4.45312 74.3125 3.04688 72.7174 3.04688 69.5273V55.4258H0.605469V52.8672H3.18359L4.21875 48.1406H6.5625V52.8672H10.4688V55.4258H6.5625V68.7656C6.5625 69.7812 6.72526 70.4974 7.05078 70.9141C7.38932 71.3177 7.96875 71.5195 8.78906 71.5195C9.25781 71.5195 9.9349 71.4284 10.8203 71.2461V73.8438ZM17.3242 56.4805C18.0794 55.1003 18.9844 54.0911 20.0391 53.4531C21.1068 52.8021 22.4544 52.4766 24.082 52.4766C26.3737 52.4766 28.0599 53.0495 29.1406 54.1953C30.2344 55.3281 30.7812 57.2357 30.7812 59.918V74H27.2461V60.6016C27.2461 59.1172 27.1094 58.0169 26.8359 57.3008C26.5625 56.5716 26.1133 56.0378 25.4883 55.6992C24.8633 55.3607 23.9974 55.1914 22.8906 55.1914C21.237 55.1914 19.9089 55.7643 18.9062 56.9102C17.9167 58.056 17.4219 59.599 17.4219 61.5391V74H13.9062V45.0156H17.4219V52.5547C17.4219 53.349 17.3958 54.1693 17.3438 55.0156C17.3047 55.862 17.2786 56.3503 17.2656 56.4805H17.3242ZM36.0742 48.375V45.0156H39.5898V48.375H36.0742ZM36.0742 74V52.8672H39.5898V74H36.0742ZM58.418 74V60.6016C58.418 59.2083 58.2812 58.1276 58.0078 57.3594C57.7344 56.5911 57.2982 56.0378 56.6992 55.6992C56.1003 55.3607 55.2214 55.1914 54.0625 55.1914C52.3698 55.1914 51.0352 55.7708 50.0586 56.9297C49.082 58.0885 48.5938 59.6966 48.5938 61.7539V74H45.0781V57.3789C45.0781 54.918 45.0391 53.4141 44.9609 52.8672H48.2812C48.2943 52.9323 48.3073 53.1081 48.3203 53.3945C48.3333 53.681 48.3464 54.013 48.3594 54.3906C48.3854 54.7552 48.4115 55.4518 48.4375 56.4805H48.4961C49.3034 55.0221 50.2344 53.9935 51.2891 53.3945C52.3568 52.7826 53.6784 52.4766 55.2539 52.4766C57.5716 52.4766 59.2643 53.056 60.332 54.2148C61.4128 55.3607 61.9531 57.2617 61.9531 59.918V74H58.418ZM75.2734 82.3008C72.9688 82.3008 71.1328 81.8451 69.7656 80.9336C68.3984 80.0352 67.5195 78.7526 67.1289 77.0859L70.6641 76.5781C70.8984 77.5547 71.4128 78.3034 72.207 78.8242C73.0143 79.3581 74.069 79.625 75.3711 79.625C78.8737 79.625 80.625 77.5742 80.625 73.4727V70.0742H80.5859C79.9219 71.4284 79.0104 72.4505 77.8516 73.1406C76.6927 73.8177 75.3385 74.1562 73.7891 74.1562C71.1979 74.1562 69.2904 73.2969 68.0664 71.5781C66.8555 69.8594 66.25 67.1576 66.25 63.4727C66.25 59.7357 66.901 56.9818 68.2031 55.2109C69.5182 53.4271 71.5104 52.5352 74.1797 52.5352C75.6771 52.5352 76.9727 52.8802 78.0664 53.5703C79.1732 54.2474 80.026 55.2174 80.625 56.4805H80.6641C80.6641 56.0898 80.6901 55.4128 80.7422 54.4492C80.7943 53.4857 80.8464 52.9583 80.8984 52.8672H84.2383C84.1602 53.5703 84.1211 55.0286 84.1211 57.2422V73.3945C84.1211 79.332 81.1719 82.3008 75.2734 82.3008ZM80.625 63.4336C80.625 61.7148 80.3906 60.237 79.9219 59C79.4531 57.75 78.7891 56.7995 77.9297 56.1484C77.0833 55.4844 76.1198 55.1523 75.0391 55.1523C73.2422 55.1523 71.9336 55.8034 71.1133 57.1055C70.293 58.4076 69.8828 60.5169 69.8828 63.4336C69.8828 66.3242 70.2669 68.401 71.0352 69.6641C71.8034 70.9271 73.1185 71.5586 74.9805 71.5586C76.0872 71.5586 77.0703 71.2331 77.9297 70.582C78.7891 69.931 79.4531 69 79.9219 67.7891C80.3906 66.5651 80.625 65.1133 80.625 63.4336ZM105.391 68.1602C105.391 70.1523 104.635 71.6888 103.125 72.7695C101.628 73.8503 99.5247 74.3906 96.8164 74.3906C94.1862 74.3906 92.1549 73.9609 90.7227 73.1016C89.3034 72.2292 88.3789 70.875 87.9492 69.0391L91.0547 68.4336C91.3542 69.5664 91.9727 70.3997 92.9102 70.9336C93.8477 71.4544 95.1497 71.7148 96.8164 71.7148C98.6003 71.7148 99.9023 71.4414 100.723 70.8945C101.556 70.3477 101.973 69.5273 101.973 68.4336C101.973 67.6003 101.686 66.9232 101.113 66.4023C100.54 65.8815 99.6159 65.4518 98.3398 65.1133L95.8203 64.4492C93.8021 63.9284 92.3633 63.4206 91.5039 62.9258C90.6576 62.418 89.9935 61.806 89.5117 61.0898C89.0299 60.3737 88.7891 59.4948 88.7891 58.4531C88.7891 56.526 89.4727 55.0612 90.8398 54.0586C92.2201 53.043 94.2253 52.5352 96.8555 52.5352C99.1862 52.5352 101.035 52.9453 102.402 53.7656C103.783 54.5859 104.655 55.901 105.02 57.7109L101.855 58.1016C101.66 57.1641 101.133 56.4479 100.273 55.9531C99.4271 55.4453 98.2878 55.1914 96.8555 55.1914C95.2669 55.1914 94.0951 55.4323 93.3398 55.9141C92.5846 56.3958 92.207 57.125 92.207 58.1016C92.207 58.7005 92.3633 59.1953 92.6758 59.5859C92.9883 59.9766 93.4505 60.3086 94.0625 60.582C94.6745 60.8555 95.9635 61.2331 97.9297 61.7148C99.7917 62.1836 101.133 62.6198 101.953 63.0234C102.773 63.4141 103.418 63.8503 103.887 64.332C104.368 64.8138 104.74 65.3737 105 66.0117C105.26 66.6367 105.391 67.3529 105.391 68.1602ZM16.0352 116.602C15.3841 117.956 14.5182 118.926 13.4375 119.512C12.3698 120.098 11.0417 120.391 9.45312 120.391C6.78385 120.391 4.81771 119.492 3.55469 117.695C2.30469 115.898 1.67969 113.177 1.67969 109.531C1.67969 102.161 4.27083 98.4766 9.45312 98.4766C11.0547 98.4766 12.3893 98.7695 13.457 99.3555C14.5247 99.9414 15.3841 100.872 16.0352 102.148H16.0742L16.0352 99.7852V91.0156H19.5508V115.645C19.5508 117.845 19.5898 119.297 19.668 120H16.3086C16.2695 119.792 16.224 119.31 16.1719 118.555C16.1328 117.799 16.1133 117.148 16.1133 116.602H16.0352ZM5.37109 109.414C5.37109 112.37 5.76172 114.486 6.54297 115.762C7.32422 117.038 8.59375 117.676 10.3516 117.676C12.3438 117.676 13.7891 116.986 14.6875 115.605C15.5859 114.225 16.0352 112.083 16.0352 109.18C16.0352 106.38 15.5859 104.329 14.6875 103.027C13.7891 101.725 12.3568 101.074 10.3906 101.074C8.61979 101.074 7.33724 101.732 6.54297 103.047C5.76172 104.349 5.37109 106.471 5.37109 109.414ZM42.832 109.414C42.832 113.112 42.0182 115.866 40.3906 117.676C38.763 119.486 36.3997 120.391 33.3008 120.391C30.2148 120.391 27.8841 119.453 26.3086 117.578C24.7331 115.69 23.9453 112.969 23.9453 109.414C23.9453 102.122 27.1029 98.4766 33.418 98.4766C36.6471 98.4766 39.0234 99.3685 40.5469 101.152C42.0703 102.923 42.832 105.677 42.832 109.414ZM39.1406 109.414C39.1406 106.497 38.7044 104.382 37.832 103.066C36.9727 101.738 35.5208 101.074 33.4766 101.074C31.4193 101.074 29.9284 101.751 29.0039 103.105C28.0924 104.447 27.6367 106.549 27.6367 109.414C27.6367 112.201 28.0859 114.297 28.9844 115.703C29.8958 117.096 31.3216 117.793 33.2617 117.793C35.3711 117.793 36.875 117.116 37.7734 115.762C38.6849 114.408 39.1406 112.292 39.1406 109.414ZM60.6445 120V106.602C60.6445 105.208 60.5078 104.128 60.2344 103.359C59.9609 102.591 59.5247 102.038 58.9258 101.699C58.3268 101.361 57.4479 101.191 56.2891 101.191C54.5964 101.191 53.2617 101.771 52.2852 102.93C51.3086 104.089 50.8203 105.697 50.8203 107.754V120H47.3047V103.379C47.3047 100.918 47.2656 99.4141 47.1875 98.8672H50.5078C50.5208 98.9323 50.5339 99.1081 50.5469 99.3945C50.5599 99.681 50.5729 100.013 50.5859 100.391C50.612 100.755 50.638 101.452 50.6641 102.48H50.7227C51.5299 101.022 52.4609 99.9935 53.5156 99.3945C54.5833 98.7826 55.9049 98.4766 57.4805 98.4766C59.7982 98.4766 61.4909 99.056 62.5586 100.215C63.6393 101.361 64.1797 103.262 64.1797 105.918V120H60.6445ZM72.1875 110.176C72.1875 112.598 72.6888 114.466 73.6914 115.781C74.694 117.096 76.1589 117.754 78.0859 117.754C79.6094 117.754 80.8268 117.448 81.7383 116.836C82.6628 116.224 83.2878 115.449 83.6133 114.512L86.6992 115.391C85.4362 118.724 82.5651 120.391 78.0859 120.391C74.9609 120.391 72.5781 119.46 70.9375 117.598C69.3099 115.736 68.4961 112.969 68.4961 109.297C68.4961 105.807 69.3099 103.132 70.9375 101.27C72.5781 99.4076 74.9154 98.4766 77.9492 98.4766C84.1602 98.4766 87.2656 102.22 87.2656 109.707V110.176H72.1875ZM83.6328 107.48C83.4375 105.254 82.8711 103.633 81.9336 102.617C80.9961 101.589 79.6484 101.074 77.8906 101.074C76.1849 101.074 74.8307 101.647 73.8281 102.793C72.8385 103.926 72.3047 105.488 72.2266 107.48H83.6328Z" fill="black"/>
</svg>
