<svg width="35" height="35" viewBox="0 0 35 35" fill="none" xmlns="http://www.w3.org/2000/svg">
<path d="M17.5 20.4167C17.7884 20.4167 18.0703 20.3312 18.3102 20.1709C18.55 20.0107 18.7369 19.7829 18.8473 19.5164C18.9577 19.25 18.9865 18.9567 18.9303 18.6738C18.874 18.391 18.7351 18.1311 18.5312 17.9272C18.3272 17.7232 18.0674 17.5843 17.7845 17.528C17.5016 17.4718 17.2084 17.5006 16.9419 17.611C16.6754 17.7214 16.4476 17.9083 16.2874 18.1481C16.1272 18.388 16.0416 18.6699 16.0416 18.9584C16.0416 19.3451 16.1953 19.7161 16.4688 19.9895C16.7423 20.263 17.1132 20.4167 17.5 20.4167ZM24.7916 20.4167C25.0801 20.4167 25.362 20.3312 25.6018 20.1709C25.8417 20.0107 26.0286 19.7829 26.1389 19.5164C26.2493 19.25 26.2782 18.9567 26.2219 18.6738C26.1657 18.391 26.0268 18.1311 25.8228 17.9272C25.6189 17.7232 25.359 17.5843 25.0761 17.528C24.7932 17.4718 24.5 17.5006 24.2335 17.611C23.9671 17.7214 23.7393 17.9083 23.5791 18.1481C23.4188 18.388 23.3333 18.6699 23.3333 18.9584C23.3333 19.3451 23.4869 19.7161 23.7604 19.9895C24.0339 20.263 24.4048 20.4167 24.7916 20.4167ZM17.5 26.25C17.7884 26.25 18.0703 26.1645 18.3102 26.0042C18.55 25.844 18.7369 25.6162 18.8473 25.3498C18.9577 25.0833 18.9865 24.7901 18.9303 24.5072C18.874 24.2243 18.7351 23.9644 18.5312 23.7605C18.3272 23.5565 18.0674 23.4176 17.7845 23.3614C17.5016 23.3051 17.2084 23.334 16.9419 23.4444C16.6754 23.5547 16.4476 23.7417 16.2874 23.9815C16.1272 24.2213 16.0416 24.5033 16.0416 24.7917C16.0416 25.1785 16.1953 25.5494 16.4688 25.8229C16.7423 26.0964 17.1132 26.25 17.5 26.25ZM24.7916 26.25C25.0801 26.25 25.362 26.1645 25.6018 26.0042C25.8417 25.844 26.0286 25.6162 26.1389 25.3498C26.2493 25.0833 26.2782 24.7901 26.2219 24.5072C26.1657 24.2243 26.0268 23.9644 25.8228 23.7605C25.6189 23.5565 25.359 23.4176 25.0761 23.3614C24.7932 23.3051 24.5 23.334 24.2335 23.4444C23.9671 23.5547 23.7393 23.7417 23.5791 23.9815C23.4188 24.2213 23.3333 24.5033 23.3333 24.7917C23.3333 25.1785 23.4869 25.5494 23.7604 25.8229C24.0339 26.0964 24.4048 26.25 24.7916 26.25ZM10.2083 20.4167C10.4967 20.4167 10.7787 20.3312 11.0185 20.1709C11.2583 20.0107 11.4452 19.7829 11.5556 19.5164C11.666 19.25 11.6949 18.9567 11.6386 18.6738C11.5823 18.391 11.4434 18.1311 11.2395 17.9272C11.0355 17.7232 10.7757 17.5843 10.4928 17.528C10.2099 17.4718 9.91669 17.5006 9.65021 17.611C9.38374 17.7214 9.15598 17.9083 8.99573 18.1481C8.83549 18.388 8.74996 18.6699 8.74996 18.9584C8.74996 19.3451 8.9036 19.7161 9.17709 19.9895C9.45059 20.263 9.82152 20.4167 10.2083 20.4167ZM27.7083 5.83335H26.25V4.37502C26.25 3.98825 26.0963 3.61731 25.8228 3.34382C25.5493 3.07033 25.1784 2.91669 24.7916 2.91669C24.4048 2.91669 24.0339 3.07033 23.7604 3.34382C23.4869 3.61731 23.3333 3.98825 23.3333 4.37502V5.83335H11.6666V4.37502C11.6666 3.98825 11.513 3.61731 11.2395 3.34382C10.966 3.07033 10.5951 2.91669 10.2083 2.91669C9.82152 2.91669 9.45059 3.07033 9.17709 3.34382C8.9036 3.61731 8.74996 3.98825 8.74996 4.37502V5.83335H7.29163C6.1313 5.83335 5.01851 6.29429 4.19803 7.11476C3.37756 7.93523 2.91663 9.04803 2.91663 10.2084V27.7084C2.91663 28.8687 3.37756 29.9815 4.19803 30.8019C5.01851 31.6224 6.1313 32.0833 7.29163 32.0833H27.7083C28.8686 32.0833 29.9814 31.6224 30.8019 30.8019C31.6224 29.9815 32.0833 28.8687 32.0833 27.7084V10.2084C32.0833 9.04803 31.6224 7.93523 30.8019 7.11476C29.9814 6.29429 28.8686 5.83335 27.7083 5.83335ZM29.1666 27.7084C29.1666 28.0951 29.013 28.4661 28.7395 28.7395C28.466 29.013 28.0951 29.1667 27.7083 29.1667H7.29163C6.90485 29.1667 6.53392 29.013 6.26043 28.7395C5.98694 28.4661 5.83329 28.0951 5.83329 27.7084V14.5834H29.1666V27.7084ZM29.1666 11.6667H5.83329V10.2084C5.83329 9.82158 5.98694 9.45065 6.26043 9.17716C6.53392 8.90367 6.90485 8.75002 7.29163 8.75002H27.7083C28.0951 8.75002 28.466 8.90367 28.7395 9.17716C29.013 9.45065 29.1666 9.82158 29.1666 10.2084V11.6667ZM10.2083 26.25C10.4967 26.25 10.7787 26.1645 11.0185 26.0042C11.2583 25.844 11.4452 25.6162 11.5556 25.3498C11.666 25.0833 11.6949 24.7901 11.6386 24.5072C11.5823 24.2243 11.4434 23.9644 11.2395 23.7605C11.0355 23.5565 10.7757 23.4176 10.4928 23.3614C10.2099 23.3051 9.91669 23.334 9.65021 23.4444C9.38374 23.5547 9.15598 23.7417 8.99573 23.9815C8.83549 24.2213 8.74996 24.5033 8.74996 24.7917C8.74996 25.1785 8.9036 25.5494 9.17709 25.8229C9.45059 26.0964 9.82152 26.25 10.2083 26.25Z" fill="black"/>
</svg>
